<svg version="1.0" xmlns="http://www.w3.org/2000/svg"
 width="100.000000pt" height="100.000000pt" viewBox="0 0 100.000000 100.000000"
 preserveAspectRatio="xMidYMid meet">
<g transform="translate(0.000000,100.000000) scale(0.100000,-0.100000)"
fill="currentColor" stroke="none">
<path d="M442 697 c-28 -29 -29 -86 -3 -118 14 -18 29 -24 61 -24 52 0 80 30
80 84 0 73 -89 110 -138 58z"/>
<path d="M433 518 c-30 -33 -113 -203 -113 -233 0 -21 5 -25 29 -25 22 0 31 6
41 30 7 17 15 28 18 25 4 -3 9 -70 12 -148 l5 -142 30 0 30 0 3 117 c1 65 7
118 12 118 5 0 11 -53 12 -117 l3 -118 30 0 30 0 5 160 5 160 19 -43 c16 -35
24 -42 48 -42 41 0 37 32 -18 143 -61 122 -75 137 -134 137 -35 0 -51 -5 -67
-22z"/>
</g>
</svg>
